<svg width="528" height="261" viewBox="0 0 528 261" fill="none" xmlns="http://www.w3.org/2000/svg"><mask id="full-logo_svg__b" style="mask-type:alpha" maskUnits="userSpaceOnUse" x="0" y="0" width="528" height="261"><path fill="url(#full-logo_svg__a)" d="M0 0h528v261H0z"/></mask><g mask="url(#full-logo_svg__b)"><g opacity=".7"><mask id="full-logo_svg__d" style="mask-type:alpha" maskUnits="userSpaceOnUse" x="0" y="0" width="528" height="261"><path fill="url(#full-logo_svg__c)" d="M0 0h528v261H0z"/></mask><g mask="url(#full-logo_svg__d)" stroke="#E0E5EB" stroke-width=".674"><path d="M15.972-221.993v674.168M76.632-221.993v674.168M137.291-221.993v674.168M197.951-221.993v674.168M258.612-221.993v674.168M319.272-221.993v674.168M379.932-221.993v674.168M440.592-221.993v674.168M501.251-221.993v674.168M949.121 24.018h-1348M949.121 84.677h-1348M949.121 145.338h-1348M949.121 205.998h-1348"/></g></g><path fill="#fff" d="M137.629 85.014h241.966V205.66H137.629z"/></g><g clip-path="url(#full-logo_svg__e)"><path d="m180.521 156.38-6.221-11.004 6.221-11.005h12.385l6.221 11.005-6.221 11.004h-12.385Z" fill="#E83030" stroke="#141A1F" stroke-width="3.147"/><path d="m180.521 183.005-6.221-11.004 6.221-11.005h12.385l6.221 11.005-6.221 11.004h-12.385Z" fill="#6B91C7" stroke="#141A1F" stroke-width="3.147"/><path d="M180.521 129.755 174.3 118.75l6.221-11.004h12.385l6.221 11.004-6.221 11.005h-12.385Z" fill="#F9C31F" stroke="#141A1F" stroke-width="3.147"/><path d="m203.526 169.689-6.222-11.004 6.222-11.005h12.385l6.221 11.005-6.221 11.004h-12.385Z" fill="#795AA5" stroke="#141A1F" stroke-width="3.147"/><path d="m203.526 143.065-6.222-11.004 6.222-11.005h12.385l6.221 11.005-6.221 11.004h-12.385Z" fill="#F17423" stroke="#141A1F" stroke-width="3.147"/><path d="m157.527 169.693-6.222-11.005 6.222-11.004h12.385l6.221 11.004-6.221 11.005h-12.385Z" fill="#97C639" stroke="#141A1F" stroke-width="3.147"/><path d="m157.527 143.065-6.222-11.004 6.222-11.005h12.385l6.221 11.005-6.221 11.004h-12.385Z" fill="#C9DB70" stroke="#141A1F" stroke-width="3.147"/><path d="M253.794 132.355c1.147.008 2.289.14 3.409.393 1.061.23 1.958.645 2.829 1.083v3.39a29.492 29.492 0 0 0-2.958-.919c-.996-.23-1.895-.393-2.893-.393-.998 0-1.958.163-2.958.459-1 .297-1.831.853-2.667 1.64-.771.786-1.383 1.772-1.895 3.018-.45 1.246-.674 2.788-.674 4.658 0 1.289.16 2.578.548 3.738a8.953 8.953 0 0 0 1.606 2.951c.708.853 1.607 1.476 2.573 1.934 1.061.46 2.282.687 3.663.687.996 0 1.958-.064 3.053-.294a25.552 25.552 0 0 0 2.958-.919v3.411c-.289.163-.674.393-1.124.559-.451.165-.996.294-1.607.459-.547.164-1.124.23-1.831.295l-1.895.163a13.509 13.509 0 0 1-4.727-.786 12.733 12.733 0 0 1-3.89-2.329 11.341 11.341 0 0 1-2.573-4.035c-.632-1.639-.996-3.48-.996-5.74 0-1.639.16-3.115.548-4.426.288-1.289.77-2.492 1.383-3.48.612-.988 1.263-1.869 2.057-2.578a11.832 11.832 0 0 1 2.505-1.706 13.195 13.195 0 0 1 2.733-1.016l2.829-.262-.006.045Zm12.763-5.117v-4.593h4v4.593h-4Zm.063 30.803v-24.996h4v25.015l-4-.019Zm12.249.021v-38.107h4v38.105l-4 .002Zm12.162-30.824v-4.593h4v4.593h-4Zm.063 30.803v-24.996h4v25.015l-4-.019Zm21.786.644c-1.147.002-2.29-.13-3.408-.393a11.745 11.745 0 0 1-2.668-1.147c-.77-.559-1.446-1.083-1.958-1.869a7.29 7.29 0 0 1-1.263-2.329c-.225-.644-.385-1.289-.547-2.099l-.16-2.492v-15.285h4v15.285c0 1.411.16 2.578.547 3.48.386 1.083 1.061 1.869 1.958 2.492s2.123.92 3.504.92c1.511 0 2.732-.294 3.663-1.016.901-.688 1.606-1.543 1.958-2.722.288-.853.45-1.934.45-3.18v-15.296h4.001v15.352c0 .779-.053 1.557-.16 2.329a7.915 7.915 0 0 1-.451 2c-.288.853-.771 1.639-1.263 2.395-.548.688-1.221 1.289-1.958 1.869-.771.559-1.672.92-2.733 1.246-1.143.31-2.321.465-3.503.46h-.009Zm37.549-.644h-4v-16.093a10.03 10.03 0 0 0-.385-2.789c-.226-.786-.548-1.411-.996-1.869a4.522 4.522 0 0 0-1.606-1.083c-.632-.23-1.264-.294-2.057-.294a6.964 6.964 0 0 0-3.891 1.147 11.842 11.842 0 0 0-3.116 3.248v17.78h-3.985v-25.043h3.116l.77 3.48h.063l1.447-1.639c.547-.46 1.124-.919 1.737-1.289a6.847 6.847 0 0 1 2.122-.853c.77-.23 1.606-.294 2.526-.294 1.832 0 3.343.46 4.565 1.289 1.221.919 2.122 2.099 2.829 3.641h.063c1.061-1.542 2.348-2.788 3.727-3.641 1.379-.853 3.052-1.289 4.855-1.289.835 0 1.737.163 2.732.393.996.23 1.832.687 2.668 1.289.836.601 1.446 1.542 1.958 2.722.547 1.147.836 2.625.836 4.494v16.764h-3.857v-16.106a10.031 10.031 0 0 0-.386-2.789c-.225-.786-.547-1.411-.995-1.869a4.526 4.526 0 0 0-1.607-1.083c-.631-.23-1.263-.294-2.057-.294a6.963 6.963 0 0 0-3.89 1.147c-1.125.786-2.219 1.869-3.184 3.248l-.002 17.675Z" fill="#141A1F"/></g><defs><radialGradient id="full-logo_svg__a" cx="0" cy="0" r="1" gradientUnits="userSpaceOnUse" gradientTransform="matrix(0 130.5 -264 0 264 130.5)"><stop offset=".51" stop-color="#D9D9D9"/><stop offset="1" stop-color="#D9D9D9" stop-opacity="0"/></radialGradient><radialGradient id="full-logo_svg__c" cx="0" cy="0" r="1" gradientUnits="userSpaceOnUse" gradientTransform="matrix(0 174.935 -353.892 0 264 130.5)"><stop offset=".564" stop-color="#F6F7F8"/><stop offset=".758" stop-color="#F6F7F8" stop-opacity="0"/></radialGradient><clipPath id="full-logo_svg__e"><path fill="#fff" transform="translate(149.762 104.223)" d="M0 0h217.702v82.228H0z"/></clipPath></defs></svg>